<?xml version="1.0" encoding="UTF-8" standalone="no"?>
<!-- Created with Inkscape (http://www.inkscape.org/) -->

<svg
   width="296.32294"
   height="296.32281"
   id="svg2"
   version="1.1"
   sodipodi:docname="button_115-205-50.svg"
   inkscape:version="1.3 (0e150ed, 2023-07-21)"
   xmlns:inkscape="http://www.inkscape.org/namespaces/inkscape"
   xmlns:sodipodi="http://sodipodi.sourceforge.net/DTD/sodipodi-0.dtd"
   xmlns:xlink="http://www.w3.org/1999/xlink"
   xmlns="http://www.w3.org/2000/svg"
   xmlns:svg="http://www.w3.org/2000/svg">
  <sodipodi:namedview
     id="namedview1"
     pagecolor="#ffffff"
     bordercolor="#666666"
     borderopacity="1.0"
     inkscape:showpageshadow="2"
     inkscape:pageopacity="0.0"
     inkscape:pagecheckerboard="0"
     inkscape:deskcolor="#d1d1d1"
     inkscape:zoom="0.78666667"
     inkscape:cx="148.09322"
     inkscape:cy="147.45763"
     inkscape:window-width="1344"
     inkscape:window-height="449"
     inkscape:window-x="0"
     inkscape:window-y="38"
     inkscape:window-maximized="0"
     inkscape:current-layer="svg2" />
  <defs
     id="defs4">
    <linearGradient
       id="lg1">
      <stop
         id="s1"
         offset="0"
         style="stop-color:white;stop-opacity:0;" />
      <stop
         id="s2"
         offset="1"
         style="stop-color:white" />
    </linearGradient>
    <linearGradient
       xlink:href="#lg1"
       id="lg3"
       x1="191"
       y1="156"
       x2="148"
       y2="10"
       gradientUnits="userSpaceOnUse" />
    <linearGradient
       id="lg2">
      <stop
         style="stop-color:#D5FFD5;stop-opacity:1;"
         offset="0"
         id="s3" />
      <stop
         style="stop-color:#80FF80;stop-opacity:1;"
         offset="0.36"
         id="s4" />
      <stop
         style="stop-color:#2AFF2A;stop-opacity:1;"
         offset="0.79"
         id="s5" />
      <stop
         style="stop-color:#00FF00;stop-opacity:1;"
         offset="1"
         id="s6" />
    </linearGradient>
    <radialGradient
       xlink:href="#lg2"
       id="rg1"
       cx="-100"
       cy="-278"
       fx="-100"
       fy="-278"
       r="155"
       gradientUnits="userSpaceOnUse"
       gradientTransform="matrix(1.267,0,0,1.73,26.67,204.12)" />
  </defs>
  <g
     id="layer1"
     transform="translate(253.44704,536.88975)">
    <path
       style="fill:url(#rg1);stroke:#00d400;stroke-width:4"
       id="p1"
       d="m 54,-394 a 154,154 0 1 1 -308,0 154,154 0 1 1 308,0 z"
       transform="matrix(0.949753,0,0,0.949753,-10.31027,-14.52566)" />
    <path
       style="fill:url(#lg3)"
       d="M 150,10 C 74,10 12,71 10,147 c 39,35 77,36 96,27 20,-9 36,-38 62,-45 26,-6 40,-5 81,12 23,9 20,-22 37,-25 C 271,55 216,10 150,10 Z"
       transform="translate(-255,-539)"
       id="p2" />
  </g>
</svg>
